<svg width="128" height="128" viewBox="0 0 33.867 33.867" xmlns="http://www.w3.org/2000/svg"><path d="M4.023 0L0 4.023l29.662 29.663 4.024-4.024L4.023 0zm29.842 3.334l-12.537 8.111 9.453 9.453 3.084-2.003V3.335zM10.434 20.318c-.48.842-.914 1.584-1.21 1.775-.679.44-4.423-.293-5.346.054 2.165.63 4.09 2.031 5.458 3.837 1.645 2.17 2.154 3.924 2.053 7.686.69-.748 1.535-4.405 2.208-4.843.587-.383 3.344-.167 4.864-.481l-8.027-8.028zm-7.082 2.55C2.367 24.95.234 31.46.411 31.73l.456.63.39.673c.177.273 6.933.853 9.248.832.552-2.596-.247-5.267-1.843-7.372-1.334-1.761-3.21-3.099-5.31-3.627z"/></svg>