<svg viewBox="0 0 128 128" xmlns="http://www.w3.org/2000/svg"><path d="M24.318 0l-3.111 1.607L17.89 3.3c-1.798.916-15.92 40.454-14.172 43.859 1.748 3.406 21.484 8.331 23.232 11.736s-5.557 22.252-2.935 27.359c.374.696 1.154 1.534 2.38.892l30.647-15.734v.002L87.688 55.68c1.237-.622 1.01-1.745.662-2.455-2.622-5.107-22.195-10.156-23.943-13.56-1.748-3.406 5.754-22.316 4.006-25.72C66.838 10.877 34.013 1.212 26.196 0h-1.88zm71.043 69.131a1.835 1.835 0 00-.68.172l-30.646 15.73-30.646 15.734c-.798.436-1.311 1.624-.828 2.576L45.22 128h81.748L97.258 70.13c-.368-.712-1.172-1.045-1.896-1z"/></svg>