<svg width="128" height="128" viewBox="0 0 33.867 33.867" xmlns="http://www.w3.org/2000/svg"><path d="M33.866 3.334L15.913 14.948c-.197.129-.247.385-.158.531 3.338 1.284 5.142 2.792 6.003 4.758H31.8l2.066-1.342V3.335zm-21.21 13.991a.248.248 0 00-.075.004.315.315 0 00-.101.044c-1.062.686-2.547 4.262-3.254 4.72-.68.44-4.424-.293-5.347.054 2.165.63 4.09 2.032 5.458 3.837 1.645 2.17 2.153 3.924 2.053 7.687.69-.749 1.535-4.406 2.207-4.843.706-.46 4.55-.054 5.61-.744.144-.097.136-.249.17-.496 1.518-5.976-.239-8.787-6.374-10.17-.172-.049-.27-.086-.348-.093zm-9.303 5.542C2.368 24.95.235 31.46.412 31.731l.456.63.39.673c.177.273 6.933.853 9.248.832.552-2.596-.247-5.267-1.842-7.372-1.335-1.761-3.21-3.099-5.31-3.627z"/><path class="error" d="M23.609 22.349a1.242 1.242 0 00-1.26 1.26v8.998c0 .708.552 1.26 1.26 1.26h8.998a1.242 1.242 0 001.26-1.26v-8.998a1.242 1.242 0 00-1.26-1.26zm3.06 1.44h2.879v3.599s0 .72-.72.72h-1.44c-.72 0-.72-.72-.72-.72zm.72 5.758h1.439c.399 0 .72.321.72.72v1.44c0 .399-.321.72-.72.72h-1.44a.718.718 0 01-.72-.72v-1.44c0-.399.321-.72.72-.72z"/></svg>
