<svg width="128" height="128" viewBox="0 0 33.867 33.867" xmlns="http://www.w3.org/2000/svg"><path d="M33.867 3.334L15.914 14.948c-.197.128-.247.385-.159.531 6.016 2.313 7.055 5.354 6.556 10.492.098.14.352.2.55.072l11.007-7.148zM12.656 17.325a.248.248 0 00-.074.004.315.315 0 00-.102.044c-1.061.686-2.546 4.263-3.254 4.72-.68.44-4.424-.293-5.346.054 2.165.63 4.09 2.032 5.457 3.837 1.645 2.17 2.154 3.924 2.054 7.687.689-.748 1.535-4.406 2.207-4.843.706-.46 4.55-.054 5.61-.744.144-.097.136-.249.17-.496 1.518-5.976-.239-8.787-6.375-10.17-.172-.048-.269-.085-.347-.092zm-9.302 5.542C2.368 24.951.235 31.46.412 31.731l.457.63.39.674c.177.272 6.932.853 9.248.831.551-2.596-.248-5.267-1.843-7.372-1.335-1.76-3.21-3.098-5.31-3.627z" opacity=".35"/></svg>