<svg width="128" height="128" viewBox="0 0 33.867 33.867" xmlns="http://www.w3.org/2000/svg"><path d="M33.868 3.334L18.57 13.23h15.297V3.335zm-21.232 13.99a.248.248 0 00-.054.005.315.315 0 00-.1.044c-1.063.686-2.548 4.262-3.255 4.72-.68.44-4.424-.292-5.347.055 2.165.63 4.09 2.032 5.458 3.837 1.645 2.17 2.153 3.924 2.053 7.687.57-.618 1.244-3.21 1.84-4.346V17.472l-.227-.053c-.171-.05-.269-.086-.347-.093a.248.248 0 00-.021-.002zm-9.282 5.543C2.369 24.95.236 31.461.413 31.732l.456.63.39.673c.177.273 6.933.853 9.248.832.552-2.596-.247-5.267-1.842-7.372-1.335-1.761-3.21-3.1-5.31-3.627z"/><path class="error" d="M17.843 15.875a1.94 1.94 0 00-1.968 1.968v14.055c0 1.106.862 1.968 1.968 1.968h14.055a1.94 1.94 0 001.968-1.968V17.843a1.94 1.94 0 00-1.968-1.968zm4.78 2.25h4.497v5.621s0 1.125-1.125 1.125h-2.249c-1.125 0-1.125-1.125-1.125-1.125zm1.125 8.994h2.247c.624 0 1.125.501 1.125 1.124v2.25c0 .623-.501 1.125-1.125 1.125h-2.249a1.122 1.122 0 01-1.125-1.125v-2.25c0-.623.502-1.124 1.125-1.124z"/></svg>